<svg width="41" height="41" viewBox="0 0 41 41" fill="none" xmlns="http://www.w3.org/2000/svg">
<circle cx="20.0746" cy="20.0746" r="20.0746" fill="#2A9E4A" fill-opacity="0.15"/>
<g clip-path="url(#clip0)">
<path d="M30.6545 13.5303H8.45699C7.83752 13.5303 7.3335 14.0343 7.3335 14.6539V18.0229C7.3335 18.3419 7.49773 18.6417 7.76218 18.8053C8.45235 19.2321 8.86438 19.9693 8.86438 20.7773C8.86438 21.5852 8.45235 22.3224 7.76213 22.7493C7.49773 22.9128 7.3335 23.2126 7.3335 23.5316V26.9007C7.3335 27.5202 7.83752 28.0242 8.45699 28.0242H30.6545C31.274 28.0242 31.7779 27.5201 31.7779 26.9007V14.6539C31.7779 14.0343 31.2739 13.5303 30.6545 13.5303ZM31.0618 26.9007C31.0618 27.1253 30.8791 27.308 30.6545 27.308H13.0249V27.2834C13.0249 27.0856 12.8647 26.9253 12.6669 26.9253C12.4691 26.9253 12.3088 27.0856 12.3088 27.2834V27.308H8.45699C8.23235 27.308 8.04964 27.1253 8.04964 26.9007V23.5316C8.04964 23.4588 8.08387 23.3924 8.13887 23.3583C9.04155 22.8 9.58048 21.8351 9.58048 20.7772C9.58048 19.7193 9.04155 18.7545 8.13887 18.1962C8.08387 18.1621 8.04964 18.0957 8.04964 18.0228V14.6538C8.04964 14.4291 8.23235 14.2464 8.45699 14.2464H12.3088V14.2711C12.3088 14.4688 12.4691 14.6291 12.6669 14.6291C12.8647 14.6291 13.0249 14.4688 13.0249 14.2711V14.2464H30.6545C30.8791 14.2464 31.0618 14.4292 31.0618 14.6538V26.9007Z" fill="#2A9E4A"/>
<path d="M12.6667 20.0361C12.4689 20.0361 12.3086 20.1965 12.3086 20.3942V21.1596C12.3086 21.3574 12.4689 21.5177 12.6667 21.5177C12.8645 21.5177 13.0247 21.3574 13.0247 21.1596V20.3942C13.0247 20.1964 12.8645 20.0361 12.6667 20.0361Z" fill="#2A9E4A"/>
<path d="M12.6667 15.4434C12.4689 15.4434 12.3086 15.6037 12.3086 15.8014V16.5669C12.3086 16.7646 12.4689 16.9249 12.6667 16.9249C12.8645 16.9249 13.0247 16.7646 13.0247 16.5669V15.8014C13.0247 15.6036 12.8645 15.4434 12.6667 15.4434Z" fill="#2A9E4A"/>
<path d="M12.6667 17.7402C12.4689 17.7402 12.3086 17.9006 12.3086 18.0983V18.8637C12.3086 19.0615 12.4689 19.2218 12.6667 19.2218C12.8645 19.2218 13.0247 19.0615 13.0247 18.8637V18.0983C13.0247 17.9006 12.8645 17.7402 12.6667 17.7402Z" fill="#2A9E4A"/>
<path d="M12.6667 22.332C12.4689 22.332 12.3086 22.4924 12.3086 22.6901V23.4555C12.3086 23.6533 12.4689 23.8136 12.6667 23.8136C12.8645 23.8136 13.0247 23.6533 13.0247 23.4555V22.6901C13.0247 22.4923 12.8645 22.332 12.6667 22.332Z" fill="#2A9E4A"/>
<path d="M12.6667 24.6289C12.4689 24.6289 12.3086 24.7892 12.3086 24.987V25.7524C12.3086 25.9501 12.4689 26.1105 12.6667 26.1105C12.8645 26.1105 13.0247 25.9501 13.0247 25.7524V24.987C13.0247 24.7892 12.8645 24.6289 12.6667 24.6289Z" fill="#2A9E4A"/>
<path d="M26.5055 19.5421C26.3874 19.1785 26.0646 18.9269 25.6833 18.901L23.5706 18.7578L22.7816 16.7929C22.6392 16.4382 22.3001 16.209 21.9179 16.209C21.5356 16.209 21.1966 16.4382 21.0542 16.7929L20.2651 18.7578L18.1525 18.901C17.7712 18.9269 17.4484 19.1785 17.3303 19.542C17.2122 19.9056 17.3254 20.2988 17.6187 20.5439L19.2437 21.9016L18.7271 23.9551C18.6338 24.3257 18.7734 24.7104 19.0826 24.9351C19.3918 25.1597 19.8008 25.1736 20.1245 24.9704L21.9179 23.8445L23.7112 24.9703C23.8638 25.0661 24.0353 25.1137 24.2064 25.1137C24.3983 25.1137 24.5897 25.0539 24.7532 24.9351C25.0625 24.7104 25.202 24.3257 25.1087 23.955L24.5921 21.9015L26.217 20.5439C26.5104 20.2988 26.6236 19.9056 26.5055 19.5421ZM25.7578 19.9943L23.9605 21.4961C23.855 21.5843 23.8093 21.725 23.8428 21.8583L24.4142 24.1297C24.4461 24.2567 24.3675 24.3301 24.3322 24.3557C24.2969 24.3814 24.2028 24.4334 24.092 24.3638L22.1083 23.1185C21.9919 23.0454 21.8439 23.0454 21.7275 23.1185L19.7437 24.3638C19.6328 24.4335 19.5387 24.3814 19.5035 24.3557C19.4682 24.3301 19.3896 24.2567 19.4215 24.1298L19.993 21.8583C20.0265 21.725 19.9808 21.5843 19.8753 21.4962L18.0779 19.9943C17.9774 19.9104 17.9979 19.8048 18.0114 19.7633C18.0249 19.7218 18.0703 19.6244 18.201 19.6155L20.5379 19.4571C20.675 19.4478 20.7947 19.3608 20.8459 19.2333L21.7187 17.0597C21.7675 16.9383 21.8742 16.9251 21.9178 16.9251C21.9615 16.9251 22.0682 16.9383 22.117 17.0598L22.9898 19.2333C23.041 19.3608 23.1607 19.4478 23.2978 19.4571L25.6347 19.6155C25.7653 19.6244 25.8108 19.7219 25.8243 19.7634C25.8379 19.8048 25.8583 19.9103 25.7578 19.9943Z" fill="#2A9E4A"/>
</g>
<defs>
<clipPath id="clip0">
<rect width="24.4444" height="24.4444" fill="white" transform="translate(7.3335 8.55469)"/>
</clipPath>
</defs>
</svg>
