<svg width="41" height="41" viewBox="0 0 41 41" fill="none" xmlns="http://www.w3.org/2000/svg">
<circle cx="20.0746" cy="20.0746" r="20.0746" fill="#2A9E4A" fill-opacity="0.15"/>
<path d="M25.6671 7.33398H13.4449C12.7699 7.33398 12.2227 7.88117 12.2227 8.55621V30.5562C12.2227 31.2312 12.7698 31.7784 13.4449 31.7784H25.6671C26.3421 31.7784 26.8893 31.2312 26.8893 30.5562V8.55621C26.8893 7.88117 26.3421 7.33398 25.6671 7.33398ZM26.0745 10.5933H16.7042C16.4791 10.5933 16.2968 10.7756 16.2968 11.0007C16.2968 11.2257 16.4791 11.408 16.7042 11.408H26.0745V27.2969H24.8523C24.6273 27.2969 24.4449 27.4793 24.4449 27.7043C24.4449 27.9293 24.6273 28.1117 24.8523 28.1117H26.0745V30.5562C26.0745 30.7812 25.8922 30.9636 25.6671 30.9636H13.4449C13.2199 30.9636 13.0375 30.7812 13.0375 30.5562V28.1117H22.4079C22.6329 28.1117 22.8153 27.9293 22.8153 27.7043C22.8153 27.4793 22.6329 27.2969 22.4079 27.2969H13.0375V11.408H14.2597C14.4847 11.408 14.6671 11.2257 14.6671 11.0007C14.6671 10.7756 14.4847 10.5933 14.2597 10.5933H13.0375V8.55621C13.0375 8.33119 13.2199 8.14882 13.4449 8.14882H25.6671C25.8921 8.14882 26.0745 8.33119 26.0745 8.55621V10.5933Z" fill="#2A9E4A"/>
<path d="M19.9634 29.334H19.1486C18.9236 29.334 18.7412 29.5164 18.7412 29.7414C18.7412 29.9664 18.9236 30.1488 19.1486 30.1488H19.9634C20.1884 30.1488 20.3708 29.9664 20.3708 29.7414C20.3708 29.5164 20.1884 29.334 19.9634 29.334Z" fill="#2A9E4A"/>
</svg>
