<svg width="41" height="41" viewBox="0 0 41 41" fill="none" xmlns="http://www.w3.org/2000/svg">
<circle cx="20.0746" cy="20.0746" r="20.0746" fill="#2A9E4A" fill-opacity="0.15"/>
<g clip-path="url(#clip0)">
<path d="M21.0997 23.2995C21.3024 23.2995 21.4663 23.1352 21.4663 22.9329V17.7995H22.5663C23.5772 17.7995 24.3997 16.9771 24.3997 15.9662C24.3997 14.9553 23.5772 14.1328 22.5663 14.1328C21.5554 14.1328 20.733 14.9552 20.733 15.9662V17.0662H19.2663V15.9662C19.2663 14.9553 18.4439 14.1328 17.433 14.1328C16.4221 14.1328 15.5996 14.9552 15.5996 15.9662C15.5996 16.977 16.422 17.7995 17.433 17.7995H18.533V22.9329C18.533 23.1352 18.6972 23.2995 18.8996 23.2995C19.102 23.2995 19.2663 23.1352 19.2663 22.9329V17.7995H20.7329V22.9329C20.733 23.1352 20.8969 23.2995 21.0997 23.2995ZM21.4663 15.9662C21.4663 15.3597 21.9598 14.8662 22.5663 14.8662C23.1728 14.8662 23.6663 15.3597 23.6663 15.9662C23.6663 16.5726 23.1728 17.0662 22.5663 17.0662H21.4663V15.9662ZM18.533 17.0662H17.433C16.8265 17.0662 16.333 16.5726 16.333 15.9662C16.333 15.3597 16.8265 14.8662 17.433 14.8662C18.0395 14.8662 18.533 15.3597 18.533 15.9662V17.0662Z" fill="#2A9E4A"/>
<path d="M11.6182 9.78009L13.0218 10.9582C13.0908 11.0161 13.1744 11.044 13.2576 11.044C13.3621 11.044 13.4662 10.9996 13.5385 10.9131C13.6686 10.758 13.6485 10.5267 13.4933 10.3965L12.0898 9.21836C11.9347 9.08855 11.7037 9.10875 11.5732 9.26348C11.443 9.41894 11.4631 9.64994 11.6182 9.78009Z" fill="#2A9E4A"/>
<path d="M11.855 12.9797L10.1328 12.3531C9.94246 12.2842 9.73238 12.3821 9.66269 12.5724C9.59377 12.7627 9.69165 12.9732 9.88196 13.0425L11.6042 13.6691C11.6456 13.6841 11.6878 13.6915 11.7296 13.6915C11.8792 13.6915 12.02 13.5987 12.0742 13.4499C12.1436 13.2595 12.0453 13.049 11.855 12.9797Z" fill="#2A9E4A"/>
<path d="M26.7411 11.0438C26.8239 11.0438 26.9075 11.0156 26.9761 10.958L28.3805 9.77914C28.5356 9.64899 28.5561 9.41799 28.4256 9.26253C28.2965 9.10814 28.0652 9.08726 27.9093 9.21741L26.505 10.3963C26.3498 10.5264 26.3297 10.7574 26.4598 10.9129C26.5321 10.9991 26.6362 11.0438 26.7411 11.0438Z" fill="#2A9E4A"/>
<path d="M11.1993 15.9678H9.36665C9.16427 15.9678 9 16.132 9 16.3344C9 16.5368 9.16427 16.7011 9.36665 16.7011H11.1993C11.4017 16.7011 11.5659 16.5368 11.5659 16.3344C11.5659 16.132 11.4017 15.9678 11.1993 15.9678Z" fill="#2A9E4A"/>
<path d="M30.3362 12.5713C30.2673 12.3814 30.0564 12.2828 29.8665 12.3525L28.1439 12.9795C27.9532 13.0488 27.8553 13.2592 27.9246 13.4495C27.9789 13.5984 28.1193 13.6908 28.2693 13.6908C28.3107 13.6908 28.3532 13.6838 28.3943 13.6684L30.1173 13.0414C30.3076 12.9721 30.4058 12.7616 30.3362 12.5713Z" fill="#2A9E4A"/>
<path d="M20.0003 9C15.9567 9 12.667 12.2897 12.667 16.3333C12.667 19.428 13.8806 21.7365 16.4873 23.5985C16.4998 23.6073 16.5181 23.6183 16.5317 23.6256C16.5508 23.6358 16.9453 23.8562 17.0443 24.4744C16.6303 24.6325 16.3337 25.031 16.3337 25.5C16.3337 25.7816 16.44 26.0387 16.6145 26.2333C16.44 26.428 16.3337 26.6851 16.3337 26.9667C16.3337 27.2483 16.44 27.5053 16.6145 27.7C16.44 27.8947 16.3337 28.1518 16.3337 28.4334C16.3337 29.0399 16.8272 29.5334 17.4337 29.5334C17.6361 29.5334 17.8003 29.3691 17.8003 29.1667C17.8003 28.9644 17.6361 28.8001 17.4337 28.8001C17.2316 28.8001 17.067 28.6355 17.067 28.4334C17.067 28.2314 17.2316 28.0668 17.4337 28.0668H21.1003C21.3031 28.0668 21.467 27.9025 21.467 27.7001C21.467 27.4977 21.3031 27.3335 21.1003 27.3335H17.4337C17.2316 27.3335 17.067 27.1689 17.067 26.9668C17.067 26.7648 17.2316 26.6002 17.4337 26.6002H21.1003C21.3031 26.6002 21.467 26.4359 21.467 26.2335C21.467 26.0311 21.3031 25.8669 21.1003 25.8669H17.4337C17.2316 25.8669 17.067 25.7023 17.067 25.5002C17.067 25.2982 17.2316 25.1336 17.4337 25.1336H21.1003C21.3031 25.1336 21.467 24.9693 21.467 24.7669C21.467 24.5645 21.3031 24.4003 21.1003 24.4003H17.7754C17.6456 23.477 17.0472 23.0769 16.8973 22.9904C14.4787 21.2572 13.4004 19.2035 13.4004 16.3336C13.4004 12.6944 16.3612 9.73356 20.0004 9.73356C23.6395 9.73356 26.6004 12.6944 26.6004 16.3336C26.6004 19.2034 25.522 21.2572 23.1035 22.9904C22.9348 23.0876 22.2004 23.5808 22.2004 24.7669C22.2004 24.9693 22.3643 25.1336 22.567 25.1336C22.7694 25.1336 22.9337 25.2982 22.9337 25.5002C22.9337 25.7023 22.7694 25.8669 22.567 25.8669C22.3643 25.8669 22.2004 26.0311 22.2004 26.2335C22.2004 26.4359 22.3643 26.6002 22.567 26.6002C22.7694 26.6002 22.9337 26.7648 22.9337 26.9668C22.9337 27.1689 22.7694 27.3335 22.567 27.3335C22.3643 27.3335 22.2004 27.4977 22.2004 27.7001C22.2004 27.9025 22.3643 28.0668 22.567 28.0668C22.7694 28.0668 22.9337 28.2314 22.9337 28.4334C22.9337 28.6424 22.776 28.8001 22.567 28.8001H18.9003C18.698 28.8001 18.5337 28.9644 18.5337 29.1667V29.9C18.5337 30.5065 19.0272 31 19.6337 31H20.367C20.9735 31 21.467 30.5065 21.467 29.9V29.5333H22.567C23.1842 29.5333 23.667 29.0501 23.667 28.4333C23.667 28.1517 23.5607 27.8947 23.3861 27.7C23.5607 27.5053 23.667 27.2483 23.667 26.9667C23.667 26.685 23.5607 26.428 23.3861 26.2333C23.5607 26.0386 23.667 25.7816 23.667 25.5C23.667 25.031 23.3704 24.6324 22.9561 24.4744C23.0551 23.8562 23.4492 23.6362 23.4643 23.6278C23.4815 23.6193 23.498 23.6094 23.5134 23.5984C26.1196 21.7365 27.3337 19.428 27.3337 16.3333C27.3337 12.2897 24.044 9 20.0003 9ZM20.7337 29.9C20.7337 30.102 20.5694 30.2667 20.367 30.2667H19.6337C19.4316 30.2667 19.267 30.102 19.267 29.9V29.5333H20.7337V29.9Z" fill="#2A9E4A"/>
<path d="M30.6336 15.9668H28.8002C28.5975 15.9668 28.4336 16.1311 28.4336 16.3334C28.4336 16.5358 28.5975 16.7001 28.8002 16.7001H30.6336C30.8364 16.7001 31.0002 16.5358 31.0002 16.3334C31.0002 16.1311 30.8364 15.9668 30.6336 15.9668Z" fill="#2A9E4A"/>
</g>
<defs>
<clipPath id="clip0">
<rect width="22" height="22" fill="white" transform="translate(9 9)"/>
</clipPath>
</defs>
</svg>
