<svg width="41" height="41" viewBox="0 0 41 41" fill="none" xmlns="http://www.w3.org/2000/svg">
<circle cx="20.0746" cy="20.0746" r="20.0746" fill="#2A9E4A" fill-opacity="0.15"/>
<path d="M31.6468 18.0945C28.4224 14.8696 24.1277 13.0938 19.5552 13.0938C14.9827 13.0938 10.6885 14.8691 7.46356 18.0945C7.28949 18.2686 7.28949 18.5499 7.46356 18.724C7.63762 18.8981 7.91898 18.8981 8.09305 18.724C11.1497 15.6669 15.2204 13.9837 19.5552 13.9837C23.8899 13.9837 27.9607 15.6669 31.0173 18.7235C31.1042 18.8104 31.2181 18.854 31.3321 18.854C31.4461 18.854 31.56 18.8104 31.6468 18.7235C31.8209 18.5499 31.8209 18.2681 31.6468 18.0945Z" fill="#2A9E4A"/>
<path d="M10.0807 20.7102C9.90668 20.8842 9.90668 21.1656 10.0807 21.3397C10.1676 21.4265 10.2815 21.4701 10.3955 21.4701C10.5095 21.4701 10.6234 21.4265 10.7102 21.3397C15.5872 16.4622 23.5231 16.4622 28.4005 21.3397C28.5746 21.5137 28.8559 21.5137 29.03 21.3397C29.2041 21.1656 29.2041 20.8842 29.03 20.7102C23.8062 15.4864 15.3054 15.4855 10.0807 20.7102Z" fill="#2A9E4A"/>
<path d="M19.5555 20.4922C16.9623 20.4922 14.5272 21.4996 12.6979 23.3285C12.5239 23.5025 12.5239 23.7839 12.6979 23.9579C12.872 24.132 13.1534 24.132 13.3274 23.9579C14.9884 22.2974 17.2001 21.3826 19.5555 21.3826C21.911 21.3826 24.1227 22.2974 25.7837 23.9579C25.8705 24.0448 25.9844 24.0884 26.0984 24.0884C26.2124 24.0884 26.3263 24.0448 26.4132 23.9579C26.5872 23.7839 26.5872 23.5025 26.4132 23.3285C24.5843 21.4996 22.1487 20.4922 19.5555 20.4922Z" fill="#2A9E4A"/>
<path d="M19.5551 24.6797C17.9471 24.6797 16.6387 25.9881 16.6387 27.5965C16.6387 29.205 17.9471 30.5134 19.5551 30.5134C21.1635 30.5134 22.4719 29.205 22.4719 27.5965C22.4719 25.9881 21.1635 24.6797 19.5551 24.6797ZM19.5551 29.6226C18.4377 29.6226 17.529 28.7135 17.529 27.5961C17.529 26.4787 18.4381 25.5696 19.5551 25.5696C20.672 25.5696 21.5815 26.4787 21.5815 27.5961C21.5815 28.7135 20.6725 29.6226 19.5551 29.6226Z" fill="#2A9E4A"/>
</svg>
