<svg width="41" height="41" viewBox="0 0 41 41" fill="none" xmlns="http://www.w3.org/2000/svg">
<circle cx="20.0746" cy="20.0746" r="20.0746" fill="#2A9E4A" fill-opacity="0.15"/>
<path d="M28.1104 25.0003C28.1104 24.7619 27.9176 24.5691 27.6792 24.5691H12.9992L15.5797 21.9886C15.748 21.8203 15.748 21.5504 15.5797 21.3821C15.4114 21.2138 15.1414 21.2138 14.9731 21.3821L11.6599 24.6953C11.4916 24.8636 11.4916 25.1336 11.6599 25.3019L14.9731 28.6151C15.0573 28.6993 15.166 28.7413 15.2782 28.7413C15.3904 28.7413 15.4991 28.6993 15.5832 28.6151C15.7515 28.4468 15.7515 28.1768 15.5832 28.0086L13.0027 25.4281H27.6862C27.9176 25.4281 28.1104 25.2388 28.1104 25.0003Z" fill="#2A9E4A"/>
<path d="M27.9843 15.0258L24.671 11.7161C24.5027 11.5478 24.2328 11.5478 24.0645 11.7161C23.8962 11.8844 23.8962 12.1543 24.0645 12.3226L26.645 14.9031H11.9615C11.7231 14.9031 11.5303 15.0959 11.5303 15.3343C11.5303 15.5727 11.7231 15.7656 11.9615 15.7656H26.645L24.0645 18.339C23.8962 18.5073 23.8962 18.7773 24.0645 18.9456C24.1486 19.0297 24.2573 19.0718 24.3695 19.0718C24.4817 19.0718 24.5904 19.0297 24.6745 18.9456L27.9878 15.6323C28.1526 15.4676 28.1526 15.1941 27.9843 15.0258Z" fill="#2A9E4A"/>
</svg>
